<svg width="1440" height="463" viewBox="0 0 1440 463" fill="none" xmlns="http://www.w3.org/2000/svg">
<path d="M0 269.5C0 269.5 132.443 169.191 230 130.5C505.309 21.3134 693.355 268.944 984 212C1172.74 175.023 1301.5 -78.4997 1440 26.0003C1578.5 130.5 1440 463 1440 463H0V269.5Z" fill="url(#paint0_linear_748_54)"/>
<path d="M0 206C0 206 83.5 41.5 258 71C432.5 100.5 958 394 1073 253.5C1188 113 1440 29 1440 29V463H0V206Z" fill="url(#paint1_linear_748_54)" fill-opacity="0.79"/>
<rect y="262" width="1440" height="201" fill="url(#paint2_linear_748_54)"/>
<defs>
<linearGradient id="paint0_linear_748_54" x1="750.778" y1="0.921875" x2="750.778" y2="463" gradientUnits="userSpaceOnUse">
<stop stop-color="#E36E66"/>
<stop offset="1" stop-color="#E36E66" stop-opacity="0"/>
</linearGradient>
<linearGradient id="paint1_linear_748_54" x1="720" y1="29" x2="720" y2="463" gradientUnits="userSpaceOnUse">
<stop stop-color="#E36E66"/>
<stop offset="1" stop-color="#E38664" stop-opacity="0.471264"/>
</linearGradient>
<linearGradient id="paint2_linear_748_54" x1="649" y1="463" x2="649" y2="262" gradientUnits="userSpaceOnUse">
<stop stop-color="#FFA566"/>
<stop offset="0.45563" stop-color="#FFA566" stop-opacity="0.54437"/>
<stop offset="1" stop-color="#FFA566" stop-opacity="0"/>
</linearGradient>
</defs>
</svg>
