<svg width="1440" height="802" viewBox="0 0 1440 802" fill="none" xmlns="http://www.w3.org/2000/svg">
<path d="M0 -18H1443V671.176C1443 671.176 1307 825.157 1014 798.5C721 771.843 528 577.046 288 592C48 606.954 0 671.176 0 671.176V-18Z" fill="url(#paint0_linear_1029_153)"/>
<path d="M0 -18H1443L1470.5 699C1470.5 699 1413 783.565 1176.5 748.658C940 713.751 985.5 701.973 759.5 625.191C533.5 548.409 408.5 665.269 279.5 678.844C150.5 692.419 0 625.191 0 625.191V-18Z" fill="url(#paint1_linear_1029_153)"/>
<defs>
<linearGradient id="paint0_linear_1029_153" x1="721.5" y1="-18" x2="721.5" y2="844" gradientUnits="userSpaceOnUse">
<stop stop-color="#E38664"/>
<stop offset="0.697917" stop-color="#E38664" stop-opacity="0.568257"/>
<stop offset="0.791667" stop-color="#E38664" stop-opacity="0.5625"/>
<stop offset="1" stop-color="#E38664" stop-opacity="0"/>
</linearGradient>
<linearGradient id="paint1_linear_1029_153" x1="721.5" y1="-18" x2="721.5" y2="798" gradientUnits="userSpaceOnUse">
<stop stop-color="#E36E66"/>
<stop offset="0.755208" stop-color="#E38664" stop-opacity="0.471264"/>
<stop offset="1" stop-color="#E38664" stop-opacity="0"/>
</linearGradient>
</defs>
</svg>
